<svg xmlns="http://www.w3.org/2000/svg" version="1.1" xmlns:xlink="http://www.w3.org/1999/xlink" xmlns:svgjs="http://svgjs.dev/svgjs" viewBox="0 0 14.330602103725017 14.175419265232376"><g transform="matrix(1,0,0,1,3.689941259234735,4.665256609662626)"><g><path d=" M 0.2205436471529447 -1.8303336840271356 Q 0.24680107780110752 -1.7962228743657258 0.28364668482878896 -1.779262590088578 Q 0.3204922918564704 -1.7623023058114298 0.36362515857994143 -1.7625385434360414 Q 0.4067580253034125 -1.762774781060653 0.4538421435515364 -1.7791862346463865 Q 0.5009262617996604 -1.79559768823212 0.5476607148887083 -1.828230354296473 Q 0.5952150706635289 -1.861435523274236 0.6253255047642268 -1.899535546348606 Q 0.6554359388649247 -1.937635569422976 0.6676076517467738 -1.9778456353955882 Q 0.6797793646286229 -2.0180557013682003 0.6733550051763737 -2.0586971531831675 Q 0.6669306457241244 -2.0993386049981346 0.6411680146206877 -2.1362342258579092 Q 0.6056728339892861 -2.187068192375821 0.5576419856506469 -2.201706758148145 Q 0.5096111373120078 -2.2163453239204682 0.45631433521821685 -2.2114513596198955 Q 0.4030175331244259 -2.2065573953193227 0.3480277843084353 -2.1901142348824036 Q 0.29303803549244467 -2.1736710744454846 0.2434625023358168 -2.1634477426873886 Q 0.19388696917918896 -2.1532244109292926 0.15358491017158077 -2.156794290443684 Q 0.11328285116397263 -2.160364169958075 0.08866522588735531 -2.1956199854463043 Q 0.0749251559655224 -2.2152976499048505 0.0715115729845327 -2.2385268868968806 Q 0.06809799000354302 -2.261756123888911 0.07603219990403437 -2.2862009252432878 Q 0.08396640980452574 -2.3106457265976648 0.10312471270031662 -2.3356098895147968 Q 0.12228301559610749 -2.3605740524319296 0.1542592203412455 -2.3829016660549076 Q 0.2075528949164755 -2.4201143554265387 0.2606022972379034 -2.423615914127929 Q 0.3136516995593313 -2.4271174728293192 0.353988592936686 -2.3833232376760036 L 0.4097419755692343 -2.4222534357878636 Q 0.3836399516584386 -2.4491548176809976 0.3495331593116242 -2.4613193857296904 Q 0.3154263669648098 -2.4734839537783837 0.27745317129518227 -2.471971865607615 Q 0.23947997562555462 -2.470459777436846 0.20026263626095564 -2.455882387644367 Q 0.16104529689635655 -2.441304997851888 0.12496957872235467 -2.416114869661861 Q 0.08725405517680729 -2.389779735645015 0.06009812867815384 -2.356182032509239 Q 0.032942202179500335 -2.3225843293734627 0.020282834586081266 -2.2856927258282838 Q 0.007623466992662253 -2.248801122283104 0.012492869275205654 -2.209513224382978 Q 0.017362271557749054 -2.1702253264828513 0.043124902661185766 -2.1333297056230767 Q 0.0769025745523583 -2.084955447162483 0.12210976000829074 -2.0726140378769546 Q 0.1673169454642232 -2.060272628591426 0.2183625875887171 -2.066643846693021 Q 0.269408229713211 -2.073015064794616 0.3225956215871328 -2.0894193735471935 Q 0.3757830134610545 -2.1058236822997705 0.42539739830202417 -2.1142446571157976 Q 0.47501178314299386 -2.1226656319318247 0.5173564540318777 -2.11442373607516 Q 0.5597011249207616 -2.106181840218495 0.5894712764180663 -2.063546900558311 Q 0.626683965789697 -2.010253225983081 0.6049136756177816 -1.958462257022937 Q 0.5831433854458662 -1.9066712880627932 0.5183710732698175 -1.8614435579034265 Q 0.46671720406613293 -1.825375874358615 0.4261146039355076 -1.817149157964297 Q 0.3855120038048822 -1.808922441569979 0.3559463830810036 -1.8163301450745586 Q 0.32638076235712504 -1.8237378485791382 0.3066151221781779 -1.839817943986703 Q 0.28684948199923077 -1.8558980393942681 0.27629702978549303 -1.8692638821389953 L 0.2205436471529447 -1.8303336840271356 M 0.9305124536748884 -2.0923037003590577 L 1.0115193034008994 -2.133763202255094 L 0.89944196860502 -2.3527487520638712 L 0.9449054223370947 -2.511943834823206 L 1.348899479732308 -2.306435193668258 L 1.4414787365620347 -2.353817481549443 L 0.9682890285629668 -2.593560052328512 L 1.070928751822097 -2.9505223573542514 L 1.0264194937308821 -2.927742411257528 L 0.8721060332889519 -2.406159861773329 L 0.6926000580467708 -2.756892815532102 L 0.6115932083207598 -2.715433313636065 L 0.9305124536748884 -2.0923037003590577 M 1.3993264937795995 -3.0808811480769025 L 1.6442437141811623 -2.4251254350626947 L 1.7294919568730094 -2.456964673714898 L 1.4845747364714466 -3.112720386729106 L 1.3993264937795995 -3.0808811480769025 M 2.017367465897109 -2.555148515840678 L 1.8416308728422888 -3.23272998685467 L 1.9297164640741076 -3.2555757439517965 L 2.091645181960335 -2.6312328170889043 L 2.4410836262975506 -2.7218626886500332 L 2.4548915014661437 -2.6686241444989336 L 2.017367465897109 -2.555148515840678 M 2.62716411246893 -2.6966137036649385 L 2.535429385141792 -3.39057677170402 L 2.6256445839868725 -3.4025022862565484 L 2.710171582738307 -2.7630648878491084 L 3.0680582506841763 -2.810373797227818 L 3.0752659792598798 -2.7558481275961757 L 2.62716411246893 -2.6966137036649385 M 3.2496597703239756 -2.763734205767963 L 3.500658386387218 -2.7645677130187503 Q 3.567658016969836 -2.7647902030020277 3.6135996502846583 -2.7824428608292906 Q 3.6595412835994807 -2.8000955186565535 3.6874481483275634 -2.828188345161704 Q 3.715355013055646 -2.8562811716668546 3.7277370576508155 -2.891822485256018 Q 3.7401191022459854 -2.927363798845181 3.7399995553892986 -2.9633636003522597 Q 3.7398102728662117 -3.0203632860718006 3.7151975025870234 -3.0542817403287965 Q 3.6905847323078356 -3.0882001945857924 3.6565251463450292 -3.106087189974683 Q 3.622465560382223 -3.123974185363574 3.5864458343990298 -3.129854605424734 Q 3.5504261084158366 -3.135735025485894 3.5284229089710473 -3.136661963559782 L 3.528409625986971 -3.1406619415050128 Q 3.5634094330077417 -3.14077816761568 3.5943644320120245 -3.154381036307426 Q 3.625319431016307 -3.1679839049991716 3.648747905405129 -3.189561823986236 Q 3.6721763797939504 -3.211139742973301 3.6860816613407152 -3.239686076277338 Q 3.69998694288748 -3.2682324095813757 3.6998806790148695 -3.3002322331432232 Q 3.6997876981263356 -3.3282320787598403 3.6876914626560895 -3.3571920699105355 Q 3.675595227185844 -3.3861520610612312 3.6510156643668465 -3.4100705704551495 Q 3.6264361015478492 -3.433989079849068 3.5878848422617056 -3.4493611456651037 Q 3.549333582975562 -3.4647332114811396 3.4973338696875595 -3.4645605326881475 L 3.247335248110625 -3.4637303461833797 L 3.2496597703239756 -2.763734205767963 M 3.3405131557531407 -2.8080361510532392 L 3.3394970074713046 -3.114034463863407 L 3.4494964009651556 -3.114399745925505 Q 3.498496130794235 -3.1145624624804396 3.5345391019995613 -3.1016820810151255 Q 3.570582073204888 -3.0888016995498115 3.5941550000455393 -3.066879858382489 Q 3.617727926886191 -3.0449580172151673 3.6293241651132826 -3.0159963656914623 Q 3.640920403340375 -2.987034714167757 3.6410266672129854 -2.9550348906059094 Q 3.6411428933236527 -2.9200350835851387 3.628732622387321 -2.8929937231295915 Q 3.616322351450989 -2.865952362674044 3.595385561412889 -2.8468827317677965 Q 3.574448771374789 -2.827813100861549 3.5459804756021995 -2.8182185119800818 Q 3.5175121798296103 -2.8086239230986147 3.4855123562677623 -2.8085176592260046 L 3.3405131557531407 -2.8080361510532392 M 3.3393508946464654 -3.1580342212609476 L 3.3384808591894686 -3.4200327766735747 L 3.4604801865190127 -3.4204379076879015 Q 3.499479971485014 -3.4205674167826454 3.527016348064687 -3.4096587979487847 Q 3.5545527246443593 -3.3987501791149244 3.5721124015830883 -3.3808083914167186 Q 3.589672078521817 -3.362866603718513 3.5977484115707177 -3.3398932965015877 Q 3.605824744619618 -3.316919989284662 3.6059011217780568 -3.293920116099584 Q 3.6059974234126098 -3.26492027599666 3.5945805054705477 -3.239882225259747 Q 3.5831635875284853 -3.214844174522834 3.56272347398752 -3.196776198475904 Q 3.5422833604465547 -3.1787082224289738 3.51581671401959 -3.168620277796391 Q 3.489350067592626 -3.158532333163808 3.459350233003394 -3.158432710783236 L 3.3393508946464654 -3.1580342212609476 M 3.91856060002567 -3.1100205245074024 Q 3.9101651699578484 -3.054653415552931 3.921902366979536 -2.9886478233195897 Q 3.933639564001223 -2.9226422310862485 3.9710240959341396 -2.8623562727530123 Q 4.008408627867056 -2.8020703144197756 4.07328410944491 -2.756327316157293 Q 4.138159591022765 -2.71058431789481 4.236040730067277 -2.6957423968820544 Q 4.302283521137805 -2.6856978644794824 4.358641236033122 -2.693840835176849 Q 4.414998950928439 -2.701983805874215 4.462205045239484 -2.7231459102094826 Q 4.5094111395505285 -2.74430801454475 4.546521508908003 -2.7755981165923918 Q 4.583631878265478 -2.8068882186400335 4.609971889896075 -2.8438571757162077 Q 4.636311901526671 -2.880826132792382 4.652839888612433 -2.919788622996332 Q 4.669367875698193 -2.9587511132002824 4.674914856278718 -2.995332953045201 Q 4.68331028634654 -3.0507000619996725 4.670090041763572 -3.116930531824116 Q 4.656869797180605 -3.1831610016485596 4.617507868499313 -3.2437467967699325 Q 4.578145939818023 -3.3043325918913053 4.510798712304701 -3.350450386138959 Q 4.44345148479138 -3.3965681803866126 4.344581647372681 -3.4115600197934364 Q 4.246700508328169 -3.426401940806192 4.1712557799685035 -3.402441703688492 Q 4.095811051608839 -3.378481466570792 4.042310292313586 -3.332482349678927 Q 3.988809533018334 -3.2864832327870617 3.9579577407529465 -3.2264297823115613 Q 3.9271059484875592 -3.166376331836061 3.91856060002567 -3.1100205245074024 M 4.015453040695995 -3.095328521888715 Q 4.025947328280772 -3.1645374080818045 4.055974569378784 -3.2191530174992766 Q 4.086001810476796 -3.2737686269167483 4.129374572059674 -3.3096720188550433 Q 4.172747333642552 -3.345575410793338 4.226694032986693 -3.3611639844892522 Q 4.280640732330832 -3.3767525581851663 4.339962634782052 -3.3677574545410724 Q 4.3982958388590845 -3.3589122692910465 4.446679421243298 -3.3278071418090693 Q 4.495063003627512 -3.2967020143270926 4.5278200168570315 -3.2492549060455436 Q 4.560577030086552 -3.2018077977639945 4.574546866639861 -3.140520819810486 Q 4.58851670319317 -3.079233841856978 4.578022415608393 -3.010024955663888 Q 4.567528128023617 -2.9408160694707988 4.536017839364324 -2.8864253376444293 Q 4.504507550705031 -2.83203460581806 4.459157392373779 -2.7964310506679015 Q 4.413807234042527 -2.760827495517743 4.358377487137107 -2.7454637994129314 Q 4.302947740231685 -2.7301001033081196 4.2446145361546535 -2.7389452885581456 Q 4.185292633703433 -2.7479403922022394 4.138392098880501 -2.778820642093114 Q 4.091491564057567 -2.8097008919839883 4.060711947576421 -2.856848163477401 Q 4.029932331095275 -2.9039954349708137 4.017445542103247 -2.96505753533322 Q 4.004958753111218 -3.026119635695626 4.015453040695995 -3.095328521888715 M 4.856175412098584 -2.951482395262691 Q 4.838335282086648 -2.8984001029124427 4.838485657618298 -2.8313592393499896 Q 4.838636033149948 -2.7643183757875365 4.865036362211856 -2.6984774870828496 Q 4.891436691273765 -2.6326365983781628 4.947428086656692 -2.576367480355283 Q 5.003419482039618 -2.520098362332403 5.097261391730235 -2.488559561061302 Q 5.160770562934997 -2.4672151197970216 5.217687475047238 -2.465493168692175 Q 5.274604387159478 -2.463771217587328 5.324758018544657 -2.4764544056281803 Q 5.374911649929835 -2.489137593669033 5.416872330298471 -2.5135415134976418 Q 5.4588330106671075 -2.537945433326251 5.491167158143241 -2.5698045435930434 Q 5.523501305619375 -2.6016636538598354 5.5465157591937855 -2.6371824506676007 Q 5.569530212768195 -2.672701247475366 5.581317441526082 -2.707773476349637 Q 5.599157571538018 -2.7608557686998854 5.597585348889844 -2.8283744928876584 Q 5.596013126241669 -2.8958932170754315 5.567717001024395 -2.962371253280544 Q 5.53942087580712 -3.0288492894856573 5.4810597352299855 -3.08591484188407 Q 5.422698594652852 -3.1429803942824828 5.327908786884551 -3.174837769303797 Q 5.234066877193934 -3.206376570574898 5.15561603242098 -3.1958188741211258 Q 5.077165187648027 -3.1852611776673543 5.016518180438206 -3.149203023021118 Q 4.955871173228385 -3.1131448683748815 4.915102644544559 -3.059328727032752 Q 4.874334115860733 -3.005512585690622 4.856175412098584 -2.951482395262691 M 4.949069423711518 -2.9202621677418032 Q 4.971369586226438 -2.9866150331796133 5.010385959284092 -3.0352177350944864 Q 5.049402332341745 -3.0838204370093596 5.0983286077638095 -3.111685640639053 Q 5.147254883185874 -3.1395508442687463 5.203084168277717 -3.1455791878334267 Q 5.2589134533695585 -3.151607531398107 5.315787338030539 -3.1324931063853185 Q 5.371713324613836 -3.113697255122743 5.413991490562185 -3.0746965284110024 Q 5.456269656510534 -3.035695801699262 5.480331533070061 -2.9833004193031565 Q 5.5043934096295875 -2.9309050369070513 5.507558501028827 -2.8681258031076933 Q 5.510723592428068 -2.8053465693083353 5.488423429913148 -2.738993703870525 Q 5.466123267398228 -2.6726408384327147 5.425685047224049 -2.624515997143161 Q 5.385246827049872 -2.576391155853608 5.334424755472441 -2.549163099724341 Q 5.28360268389501 -2.521935043595074 5.226351551686644 -2.516384560655713 Q 5.169100419478277 -2.5108340777163525 5.11317443289498 -2.529629928978928 Q 5.056300548234 -2.5487443539917165 5.015444229402175 -2.5872672200781373 Q 4.974587910570351 -2.625790086164558 4.95242183016619 -2.6775483210602373 Q 4.93025574976203 -2.729306555955916 4.928512505479314 -2.7916079291299547 Q 4.926769261196598 -2.8539093023039928 4.949069423711518 -2.9202621677418032 M 5.650865371612692 -2.4824546647070393 Q 5.632997509743762 -2.443291678198949 5.6352409253411455 -2.4027920845410193 Q 5.637484340938529 -2.36229249088309 5.657867990098859 -2.3242792452059766 Q 5.678251639259189 -2.2862659995288634 5.714780184840759 -2.2523261209537244 Q 5.75130873042233 -2.218386242378586 5.802011128521774 -2.1923426860360773 Q 5.853603042377349 -2.165842225196332 5.901362187998741 -2.1570493866606406 Q 5.949121333620132 -2.148256548124949 5.990354870500604 -2.1563061093755245 Q 6.031588407381076 -2.1643556706260996 6.0645051573891955 -2.189043472652666 Q 6.097421907397315 -2.2137312746792333 6.11798260977298 -2.2537594837051107 Q 6.146310688601673 -2.3089094605852085 6.136783427802485 -2.3582093723667144 Q 6.1272561670032974 -2.40750928414822 6.098001653520004 -2.4523275108072013 Q 6.068747140036711 -2.4971457374661825 6.028492812277858 -2.53805831617595 Q 5.988238484519006 -2.5789708948857166 5.956014091803673 -2.618007269129849 Q 5.9237896990883385 -2.657043643373981 5.908094227576452 -2.694335092447724 Q 5.892398756064565 -2.7316265415214662 5.912045649445755 -2.7698757190350825 Q 5.923011357379443 -2.791224097182217 5.941946267260791 -2.8051064308399716 Q 5.960881177142139 -2.818988764497726 5.98619826984999 -2.8234097165243925 Q 6.011515362557841 -2.8278306685510586 6.042541427965511 -2.8225739333171895 Q 6.07356749337318 -2.8173171980833205 6.1082586078622745 -2.799497922691078 Q 6.166077132010764 -2.7697991303706737 6.19398522524069 -2.724548292452799 Q 6.221893318470615 -2.679297454534924 6.202052079182677 -2.623160788945322 L 6.262539150599559 -2.5920912831332066 Q 6.274107522460544 -2.6277447930934614 6.268906374250292 -2.6635805023412913 Q 6.263705226040041 -2.6994162115891207 6.24460726403722 -2.7322722285013823 Q 6.225509302034398 -2.7651282454136434 6.194281411132097 -2.792972792991113 Q 6.163053520229796 -2.8208173405685826 6.123914826960049 -2.84092113844701 Q 6.082997102178041 -2.8619387453199114 6.040599344331777 -2.8702260928816794 Q 5.9982015864855125 -2.878513440443447 5.959673036730948 -2.872447069715408 Q 5.921144486976382 -2.8663806989873692 5.888696788084671 -2.8437003807216823 Q 5.856249089192961 -2.821020062455995 5.835688386817296 -2.7809918534301175 Q 5.808731021480313 -2.7285104238184115 5.8189679322637 -2.6827807216806 Q 5.829204843047087 -2.6370510195427883 5.858712102017342 -2.5949134867713703 Q 5.888219360987597 -2.552775953999953 5.92759631960949 -2.513438247792172 Q 5.966973278231384 -2.474100541584391 5.9976227984447315 -2.4341867982033 Q 6.028272318658079 -2.3942730548222086 6.040793751927651 -2.3529909314650497 Q 6.0533151851972224 -2.311708808107891 6.029556151340898 -2.2654539887890994 Q 5.999857359020495 -2.20763546464061 5.943898225687181 -2.2026529555754486 Q 5.887939092353867 -2.197670446510287 5.817667347619548 -2.233765901792009 Q 5.76162785498332 -2.2625508851179394 5.735365180454767 -2.2945902659891004 Q 5.709102505926214 -2.326629646860261 5.701820994240053 -2.3562265991960047 Q 5.694539482553892 -2.385823551531749 5.699507032443283 -2.410815019037608 Q 5.704474582332676 -2.4358064865434668 5.711352443029574 -2.451385158894924 L 5.650865371612692 -2.4824546647070393 M 6.426727434957835 -1.8290226242074143 L 6.793818709266159 -2.3593706197034763 L 7.014180357007158 -2.206842772393971 L 7.045482713731124 -2.2520662448781312 L 6.529935127411696 -2.608913111531339 L 6.49863277068773 -2.563689639047179 L 6.718994418428729 -2.411161791737674 L 6.3519031441204055 -1.880813796241612 L 6.426727434957835 -1.8290226242074143" fill="#431a10" fill-rule="nonzero"></path></g><g><path d=" M -1.8109718693392178 0.05114165726505235 L -1.9087062247172129 0.2823320458603566 L -1.961207627704991 0.2601373914518079 L -1.8362166791936907 -0.0355284043214696 L -1.1923836846593574 0.2366481471096799 L -1.2196402777926627 0.30112355428765314 L -1.8109718693392178 0.05114165726505235 M -1.4350706925553083 0.6996002679019022 L -1.6840266008934668 0.6212296375387211 L -1.7635983137143212 0.8740009620966216 L -1.8189218489005787 0.856585266460359 L -1.7393501360797243 0.6038139419024586 L -1.992121460637625 0.5242422290816042 L -2.080701291891029 0.8056291752875689 L -2.136024827077286 0.7882134796513065 L -2.0264260528146 0.4400567495998586 L -1.3587282143597688 0.6502461796926815 L -1.4683269886224548 0.9984029097441294 L -1.5236505238087124 0.9809872141078668 L -1.4350706925553083 0.6996002679019022 M -2.1112106415671423 1.4543619709162916 L -2.051957504710568 1.1419310733202694 L -2.203684195442293 1.0510684774977892 L -2.1898957296329016 0.9783644321452558 L -1.559493938932182 1.357466769623312 L -1.5742140578368027 1.4350832504726383 L -2.2994581336318505 1.5560668465680894 L -2.2856696678224586 1.4833628012155557 L -2.1112106415671423 1.4543619709162916 M -2.0503134468043833 1.4445369177344198 L -1.6532196978185227 1.3793866720222627 L -1.9988861959477338 1.1733704783114574 L -2.0503134468043833 1.4445369177344198 M -2.345365290832435 2.151650406762824 L -2.0432583845279764 1.996975207835689 L -2.0353081233592483 1.868220427934712 L -2.326753051507196 1.850224487924878 L -2.3224389562993593 1.7803575530948905 L -1.6247677070684838 1.8234368752417192 L -1.6377099926919947 2.033037679731682 Q -1.6449206946822363 2.1498152708046607 -1.7045428534044285 2.2067489883128806 Q -1.7641650121266204 2.2636827058211 -1.854992027405604 2.2580743820509124 Q -1.9308475566495904 2.2533905072538323 -1.981564954819068 2.2066759964149214 Q -2.0322823529885454 2.159961485576011 -2.0430133939115978 2.074136985806378 L -2.3505422050818394 2.2354907285588093 L -2.345365290832435 2.151650406762824 M -1.9784164764262582 1.871733334032522 L -1.9871062967734727 2.012465302761497 Q -1.9921599511597958 2.0943094264194824 -1.954793630558735 2.138195735044596 Q -1.917427309957674 2.1820820436697095 -1.850554672334686 2.186211249082925 Q -1.7816858365736983 2.1904637143592214 -1.7417919242245838 2.1528508740319983 Q -1.7018980118754694 2.115238033704775 -1.6965978377629842 2.0294015137707904 L -1.6879696473473103 1.8896676441108156 L -1.9784164764262582 1.871733334032522 M -2.3156561707058048 3.008061233017986 L -2.320371300689214 2.9382202167793916 L -1.7597746971933002 2.512492077999671 L -2.34643923359749 2.5520991698603073 L -2.351154363580899 2.4822581536217134 L -1.653741929998367 2.4351742127873854 L -1.649026800014958 2.5050152290259793 L -2.2086256747074637 2.9306760088059374 L -1.6229588671066821 2.8911362759450636 L -1.618243737123273 2.9609772921836575 L -2.3156561707058048 3.008061233017986 M -2.1523868695356843 3.2961812961756616 L -2.4273657077717865 3.234160021419951 L -2.4348249930618295 3.1867431566673994 L -2.1645082081320037 3.2191288909527658 L -2.1523868695356843 3.2961812961756616 M -1.5205172247805945 4.216963007351575 Q -1.4640710767665408 4.167215320225684 -1.4453758253226805 4.096554244848566 Q -1.4266805738788202 4.025893169471447 -1.4521803257980896 3.9469073311708014 Q -1.4761439480836684 3.8726796759003155 -1.5294508733585834 3.8247383396889143 Q -1.5827577986334986 3.7767970034775127 -1.657101766297193 3.762968609788455 Q -1.7314457339608873 3.749140216099397 -1.815189755291692 3.7761760976523577 Q -1.8989337766224967 3.8032119792053183 -1.9516332958640574 3.8580550341139244 Q -2.0043328151056183 3.9128980890225304 -2.019543725464998 3.9829596919590813 Q -2.0347546358243775 4.053021294895633 -2.0107910135387987 4.127248950166118 Q -1.988363520886911 4.196718422406445 -1.9404142510827231 4.2427115471670565 Q -1.892464981278535 4.288704671927668 -1.8258877194264649 4.304515054727616 Q -1.7593104575743945 4.320325437527563 -1.6835466726702175 4.301119998272144 L -1.773871095131245 4.021338836098773 L -1.7196278085874284 4.003826958274696 L -1.606568667547775 4.354029229294426 L -1.6551021344554004 4.369697751558073 Q -1.7441888318440237 4.393204353787827 -1.8289109256966167 4.373269038058388 Q -1.9136330195492097 4.353333722328949 -1.9777489510773134 4.294695873423285 Q -2.041864882605417 4.23605802451762 -2.070744119718807 4.146604183550624 Q -2.100545034612411 4.0542954327655325 -2.081516417250278 3.965137361222427 Q -2.0624877998881446 3.8759792896793215 -1.9989081961631345 3.807640911075709 Q -1.9353285924381245 3.7393025324720965 -1.8373100220168417 3.707658262018063 Q -1.7392914515955589 3.6760139915640293 -1.6477542885373735 3.694274544109317 Q -1.5562171254791886 3.712535096654605 -1.4886468116924214 3.7737356088645355 Q -1.4210764979056543 3.834936121074466 -1.39127558301205 3.9272448718595574 Q -1.3568662792173727 4.033828171735127 -1.3843509513091496 4.130970298539143 Q -1.4118356234009268 4.228112425343159 -1.4953246987880628 4.294997209046189 L -1.5205172247805945 4.216963007351575 M -1.6959666962106879 5.032070010597775 L -1.5084937261037568 4.749144427662464 L -1.5646899062894533 4.633028152607944 L -1.8275267459477447 4.76023190930735 L -1.8580207972113008 4.697223077882417 L -1.2288326091251855 4.39271819455062 L -1.1373504553345168 4.5817446888254185 Q -1.0863818267940015 4.687059449921378 -1.11043331905616 4.76591232380663 Q -1.1344848113183184 4.84476519769188 -1.2163962921707312 4.884407464334504 Q -1.2848058805749438 4.91751529142065 -1.3519125050206382 4.901665971072303 Q -1.4190191294663326 4.885816650723956 -1.4704496388977784 4.816275995711064 L -1.6593738346944202 5.107680608307694 L -1.6959666962106879 5.032070010597775 M -1.5133827149862937 4.608197282293334 L -1.451958983155416 4.735115071306414 Q -1.4162373802466788 4.808925416689906 -1.3621537176118945 4.828855480312655 Q -1.3080700549771103 4.8487855439354055 -1.2477616020418174 4.819598380583145 Q -1.1856528967800979 4.789539958623353 -1.169323337810202 4.737198813203629 Q -1.1529937788403055 4.6848576677839056 -1.1904578989641033 4.607446817747559 L -1.2514460014912157 4.481429154897693 L -1.5133827149862937 4.608197282293334 M -1.428680580761072 5.423795227786177 Q -1.4348060560567808 5.332835189569377 -1.3923812255890655 5.249692939420697 Q -1.34995639512135 5.166550689272018 -1.264357382819138 5.109263613130136 Q -1.1787583705169258 5.0519765369882546 -1.0857206863704607 5.044460598679394 Q -0.9926830022239957 5.036944660370533 -0.9109312150884685 5.077291844908583 Q -0.8291794279529414 5.117639029446632 -0.7752294630426257 5.1982516915176475 Q -0.7207233129270492 5.279695411960529 -0.7145978376313404 5.370655450177329 Q -0.7084723623356318 5.461615488394129 -0.7511752854059777 5.544342209356875 Q -0.7938782084763234 5.627068930319622 -0.8794772207785355 5.6843560064615035 Q -0.9650762330807477 5.741643082603385 -1.0578358246245823 5.749574550098179 Q -1.1505954161684169 5.7575060175929735 -1.232347203303944 5.717158833054923 Q -1.314098990439471 5.676811648516874 -1.3686051405550477 5.595367928073992 Q -1.4225551054653633 5.514755266002977 -1.428680580761072 5.423795227786177 M -1.2101265497474945 5.657766135224936 Q -1.1457249656341324 5.68926908689124 -1.0696058581437726 5.681644686923305 Q -0.9934867506534127 5.674020286955369 -0.9195225555573265 5.624519803687141 Q -0.8455583604612403 5.575019320418914 -0.8099001169356046 5.5078368102792465 Q -0.774241873409969 5.440654300139579 -0.7788072547489691 5.369106013694484 Q -0.7833726360879694 5.297557727249388 -0.8267550820983263 5.232735174243829 Q -0.8701375281086832 5.16791262123827 -0.9345391122220452 5.136409669571965 Q -0.9989406963354074 5.10490671790566 -1.0746442746398341 5.112253025270966 Q -1.1503478529442608 5.1195993326362705 -1.2243120480403469 5.169099815904499 Q -1.2982762431364332 5.218600299172726 -1.334350015848002 5.2860609019150235 Q -1.3704237885595707 5.353521504657321 -1.3658584072205706 5.425069791102417 Q -1.3612930258815703 5.496618077547513 -1.3179105798712134 5.561440630553072 Q -1.2745281338608565 5.62626318355863 -1.2101265497474945 5.657766135224936 M 0.0914198513846749 6.2258015779759575 L -0.5500157902295103 6.566925188514716 L -0.6040226176428234 6.510646750434501 L -0.29585918852660265 5.970991952479983 L -0.8505153171189699 6.253786186888902 L -0.9038588725227135 6.199643180905786 L -0.5331206399846626 5.5749919478688525 L -0.48119099824109246 5.629105830638291 L -0.8126985643570139 6.168987052397204 L -0.24646901756015516 5.873700580756149 L -0.19246219014684218 5.929979018836365 L -0.5142762231372973 6.479961498712241 L 0.03949020964110472 6.171687695206519 L 0.0914198513846749 6.2258015779759575 M -0.11651469723673019 6.787231863632657 L -0.36364343753123757 6.922831958472041 L -0.4006302669328267 6.892238258943907 L -0.17661829501431253 6.7375171018994395 L -0.11651469723673019 6.787231863632657 M 0.31739649701663114 7.225599462338376 Q 0.2854403295775914 7.177526045956679 0.2826203578387612 7.125171029392913 Q 0.2798003860999311 7.072816012829147 0.30604484991032765 7.026726663524728 L 0.36892371493983145 7.065742664506394 Q 0.3462828808193247 7.111714314795759 0.35997259113535135 7.165518049159308 Q 0.37366230145137797 7.219321783522856 0.4390903096577536 7.259919514274051 Q 0.4994200315103856 7.297353785486191 0.5539275576530243 7.288219805312708 Q 0.6084350837956628 7.279085825139226 0.6379607061601675 7.231501819170952 Q 0.6616866527030731 7.193264671517876 0.6566424112343875 7.157770930830177 Q 0.6515981697657017 7.122277190142478 0.6298256643906932 7.092879775125249 Q 0.6080531590156848 7.063482360108019 0.5655061875823936 7.018252334440829 Q 0.5160438019957233 6.965200733031677 0.49069589052897133 6.928288900453577 Q 0.46534797906221925 6.891377067875476 0.46074150543313463 6.843797866529672 Q 0.45613503180405 6.7962186651838685 0.4904058434771359 6.74098722968498 Q 0.5188769793286226 6.695102652501288 0.5650768207143924 6.673752602011191 Q 0.611276662100162 6.652402551521092 0.6672659342631986 6.658898812188078 Q 0.7232552064262351 6.6653950728550635 0.7793363563174142 6.700193127784659 Q 0.8617586523696017 6.751335723666033 0.8872726040267136 6.823068131062122 Q 0.9127865556838257 6.894800538458212 0.880890740976265 6.963274307188588 L 0.81631244716218 6.923203819693902 Q 0.8330359064460335 6.882975398029844 0.8167099798474617 6.833420235627749 Q 0.8003840532488901 6.783865073225653 0.7426034745731298 6.74801253178304 Q 0.6890714678588225 6.714796206622972 0.6357208142895656 6.7211174219913286 Q 0.5823701607203088 6.727438637359684 0.551790051842786 6.776722072112539 Q 0.5285913485563893 6.814109505373325 0.5338992116533297 6.849178388864878 Q 0.5392070747502699 6.884247272356432 0.5611408156931691 6.914333166198061 Q 0.5830745566360683 6.9444190600396905 0.624771813677069 6.989121842450372 Q 0.672534770479158 7.041118957346506 0.6984687747099462 7.07898289037726 Q 0.7244027789407342 7.1168468234080144 0.7290092525698189 7.164426024753818 Q 0.7336157261989036 7.212005226099623 0.6998721577823266 7.266386947206221 Q 0.674037238213385 7.30802295242846 0.6287459607274329 7.331702061020011 Q 0.5834546832414809 7.3553811696115625 0.5258836813089174 7.35143405212145 Q 0.4683126793763538 7.347486934631336 0.4079829575237217 7.310052663419196 Q 0.3493526644556709 7.273672878720074 0.31739649701663114 7.225599462338376 M 1.1731672816182748 6.933749234943911 L 0.9896743488613244 7.3336621550005825 Q 0.9463032920278635 7.428187027013977 0.9704420259027673 7.494274631955574 Q 0.9945807597776711 7.560362236897171 1.0727455577887477 7.596226764663302 Q 1.1509103557998244 7.6320912924294335 1.215634621241228 7.607327014465586 Q 1.2803588866826314 7.582562736501737 1.3241469729087219 7.487128971488214 L 1.5076399056656724 7.087216051431542 L 1.5712624156746884 7.116408108915603 L 1.3881865123103672 7.515412135972145 Q 1.3327216030906528 7.636294904989275 1.2407036772754005 7.667790163817529 Q 1.1486857514601483 7.699285422645784 1.045980842445594 7.652161101278658 Q 0.94327593343104 7.605036779911532 0.9071399462281318 7.514740376722528 Q 0.8710039590252235 7.424443973533523 0.926468868244938 7.303561204516393 L 1.109544771609259 6.904557177459851 L 1.1731672816182748 6.933749234943911 M 1.706563743650109 7.34510500031695 Q 1.7726990826105977 7.2795812111974145 1.8603573571108352 7.257895342258379 Q 1.9480156316110726 7.236209473319343 2.0401282152310847 7.263251513531691 Q 2.1523904265179747 7.2962090000404904 2.2168755046480344 7.372982528672175 Q 2.281360582778094 7.44975605730386 2.289371333987608 7.5573703122381355 L 2.210691835478847 7.534271902890088 Q 2.2019064953379757 7.457696333688095 2.15416438821155 7.4019922835020555 Q 2.1064222810851247 7.346288233316015 2.022945252179489 7.321781384373574 Q 1.9490632840676039 7.300091414619921 1.879912895106403 7.317309826466389 Q 1.8107625061452022 7.334528238312859 1.7581658588427655 7.389435821509928 Q 1.705569211540329 7.444343404706998 1.6804989867601314 7.5297394457713835 Q 1.655428761979934 7.61513548683577 1.6701383841931956 7.689281471314656 Q 1.6848480064064573 7.763427455793541 1.7337168652083972 7.815293481662081 Q 1.782585724010337 7.867159507530621 1.856467692122222 7.888849477284275 Q 1.9399447210278582 7.913356326226715 2.0100810177051343 7.8927796431024335 Q 2.08021731438241 7.872202959978151 2.1287206510851675 7.813488171988251 L 2.207400149593928 7.836586581336298 Q 2.142770126689811 7.921833048356423 2.046678780483976 7.950944097536251 Q 1.9505874342781409 7.9800551467160785 1.8392847290706258 7.947379348126158 Q 1.7471721454506137 7.92033730791381 1.685147471568331 7.854708123629709 Q 1.6231227976860483 7.789078939345608 1.602761745543336 7.6986829905666845 Q 1.5824006934006238 7.6082870417877615 1.6114145490451222 7.509457915612123 Q 1.6404284046896205 7.410628789436485 1.706563743650109 7.34510500031695 M 2.5004924074503942 7.558954635543399 Q 2.5556916489270627 7.483986017172773 2.638938259519485 7.448996707021334 Q 2.722184870111907 7.414007396869894 2.817372524017238 7.426469761974437 Q 2.93338247721436 7.4416582694455995 3.008971100524704 7.5075282931745075 Q 3.0845597238350475 7.5733983169034165 3.1091267235521696 7.678476680636865 L 3.0278206025080325 7.667831743776735 Q 3.007291418187852 7.593538052314081 2.951504479531642 7.545892827208428 Q 2.8957175408754323 7.498247602102776 2.8094537295237263 7.486953583726783 Q 2.7331052987871587 7.476957728382514 2.6674523210898524 7.5046693959519155 Q 2.601799343392546 7.532381063521317 2.558332910775429 7.594766312062471 Q 2.5148664781583117 7.657151560603626 2.503312827175975 7.745398448078359 Q 2.491759176193638 7.8336453355530935 2.5177653160340774 7.9046219562855535 Q 2.5437714558745173 7.975598577018014 2.600077659743416 8.01927764987761 Q 2.656383863612315 8.062956722737209 2.7327322943488825 8.072952578081477 Q 2.8189961057005886 8.084246596457469 2.885103440458998 8.05306454567277 Q 2.9512107752174077 8.02188249488807 2.9900440582848864 7.956369319677269 L 3.071350179329023 7.9670142565374 Q 3.020690102674264 8.061235043168237 2.9302610088326215 8.104865067085026 Q 2.839831914990979 8.148495091001813 2.7248134998553706 8.133436399833823 Q 2.6296258459500397 8.12097403472928 2.5581925189462993 8.065733381282957 Q 2.4867591919425585 8.010492727836635 2.452655099731393 7.924336411211257 Q 2.4185510075202274 7.83818009458588 2.431922086746977 7.736051674249952 Q 2.4452931659737263 7.633923253914024 2.5004924074503942 7.558954635543399 M 3.370461582019633 7.534079137493448 L 3.3701997290832684 7.795079006139084 L 3.6351995957158114 7.795344872147271 L 3.635141406174397 7.853344842957412 L 3.370141539541854 7.8530789769492255 L 3.3698756735336675 8.118078843581769 L 3.664875525068008 8.118374807628618 L 3.6648173355265934 8.17637477843876 L 3.2998175192213925 8.176008585635032 L 3.300519806790187 7.4760089379264265 L 3.665519623095388 7.476375130730155 L 3.6654614335539737 7.534375101540297 L 3.370461582019633 7.534079137493448 M 3.9037584090118536 7.517590575079034 L 3.930331290907278 7.777234334772527 L 4.193954265308716 7.750254205644988 L 4.199859350174366 7.807952818910209 L 3.936236375772928 7.834932948037747 L 3.963216504900466 8.098555922439186 L 4.256683589611501 8.068521439070794 L 4.262588674477151 8.126220052336015 L 3.899485332377057 8.163381362266398 L 3.8282170667571447 7.467018788375805 L 4.191320408857239 7.429857478445423 L 4.197225493722889 7.487556091710643 L 3.9037584090118536 7.517590575079034 M 4.758641710478053 7.359509768867892 Q 4.848915986532713 7.381949801907239 4.9094200416024805 7.449152921776145 Q 4.969924096672248 7.516356041645052 4.994223259606636 7.6226130446175056 Q 5.018299494440709 7.727895212700304 4.9929066151706305 7.814228587952145 Q 4.967513735900552 7.9005619632039865 4.895853956222235 7.959520643450876 Q 4.8241941765439185 8.018479323697767 4.711113329343876 8.044338983334363 L 4.509322507185179 8.09048510009967 L 4.353495765064653 7.409075512230447 L 4.555286587223351 7.362929395465141 Q 4.668367434423392 7.337069735828544 4.758641710478053 7.359509768867892 M 4.8980302627998 7.863622188355498 Q 4.955551132184315 7.771993319622714 4.925009982441092 7.638440939739905 Q 4.894245904597556 7.503913724967441 4.8023941077644565 7.445418020693271 Q 4.710542310931357 7.386922316419101 4.568216417041649 7.419469819065163 L 4.434664037158839 7.450010968808384 L 4.564631119642769 8.018339709477564 L 4.698183499525578 7.987798559734342 Q 4.840509393415286 7.955251057088281 4.8980302627998 7.863622188355498 M 6.112154921068824 6.7709046175810705 L 6.23794525857725 7.486433646334983 L 6.16771218436757 7.520364683558408 L 5.7499696299308365 7.0602743030757535 L 5.847161230282359 7.675229417552502 L 5.779164017427073 7.709190852208783 L 5.299972447515847 7.1632866121391405 L 5.3675042496405405 7.1306606148089235 L 5.778235245685521 7.6130184165369545 L 5.672747995244154 6.983191106876346 L 5.742981069453834 6.9492600696529205 L 6.166318001895425 7.425527685212644 L 6.044623118944131 6.8035306149112875 L 6.112154921068824 6.7709046175810705 M 6.2744595995709105 6.646561393288738 L 6.651922658824484 7.234883277038556 L 6.59300630422865 7.272683583401574 L 6.215543244975077 6.684361699651757 L 6.2744595995709105 6.646561393288738 M 6.754317713252553 6.29906235539429 L 6.789341134359155 6.345293946043862 L 6.634704434600242 6.462441251124567 L 7.021773623037003 6.973380037441389 L 6.965976875701313 7.01564968360453 L 6.578907687264552 6.5047108972877075 L 6.423473891115128 6.622462054456457 L 6.388450470008526 6.576230463806885 L 6.754317713252553 6.29906235539429 M 7.231651841456105 5.850203279515904 L 7.718341401723232 6.351934554131101 L 7.668096495824715 6.400673136704347 L 7.440417688661123 6.165957647721272 L 7.168377412439149 6.429842259082132 L 7.39605621960274 6.664557748065207 L 7.345811313704223 6.713296330638453 L 6.859121753437096 6.211565056023256 L 6.909366659335614 6.16282647345001 L 7.127994015449888 6.38821076562336 L 7.400034291671862 6.1243261542625 L 7.181406935557588 5.898941862089149 L 7.231651841456105 5.850203279515904 M 8.151852039382542 5.799061522687406 Q 8.101946375473236 5.828073153282246 8.049516501408828 5.8277440551354065 Q 7.997086627344419 5.827414956988566 7.9526564666227735 5.79845013663268 L 7.995378005628314 5.738027706153611 Q 8.039907081972373 5.763388332327763 8.094435799994883 5.752954305740608 Q 8.148964518017396 5.742520279153453 8.193418011306944 5.679648290681988 Q 8.234407596028477 5.621675418195313 8.228563341383124 5.56671775551175 Q 8.222719086737772 5.511760092828188 8.17699400421307 5.479430279526697 Q 8.140250634327149 5.453450965266571 8.1045180365528 5.4563546622715196 Q 8.06878543877845 5.459258359276468 8.038133612593912 5.479226222245571 Q 8.007481786409373 5.499194085214673 7.9597783914364335 5.538948155547856 Q 7.903852257524403 5.5851354649050124 7.865484867688587 5.608221031763691 Q 7.82711747785277 5.631306598622368 7.779347518537022 5.633047571618077 Q 7.731577559221274 5.6347885446137855 7.678503802719389 5.59726286846027 Q 7.634411758856284 5.566087691348118 7.615874593948103 5.518689131062315 Q 7.597337429039923 5.471290570776511 7.607184187928909 5.415792450633734 Q 7.617030946817894 5.360294330490956 7.6551339410660795 5.306404054658272 Q 7.711133796249019 5.227201679570842 7.784268891094769 5.206041388885147 Q 7.857403985940519 5.184881098199452 7.923838798602413 5.220831281322479 L 7.879962623407533 5.2828867504631445 Q 7.840811065520522 5.263777707707945 7.790364944152001 5.277098324768447 Q 7.739918822783482 5.29041894182895 7.700661192345957 5.34594225632323 Q 7.66429015238178 5.397382974163519 7.667396189987404 5.451016942228472 Q 7.670502227593026 5.504650910293426 7.7178603487793245 5.538135359784255 Q 7.753787199334447 5.5635373559497125 7.7891115374433975 5.560344999897429 Q 7.824435875552348 5.557152643845145 7.8557846204496204 5.5370651802579784 Q 7.887133365346893 5.516977716670811 7.934259442225163 5.4780401656684266 Q 7.989030939947854 5.433485894972867 8.02838390754374 5.409872467830725 Q 8.067736875139625 5.386259040688585 8.115506834455372 5.384518067692876 Q 8.163276793771121 5.3827770946971665 8.215534030942209 5.419725452756014 Q 8.255543478151322 5.448014039394818 8.27646005824504 5.494645538161029 Q 8.297376638338754 5.54127703692724 8.289979437442163 5.598507111354026 Q 8.282582236545574 5.655737185780812 8.24159265182404 5.713710058267488 Q 8.201757703291847 5.770049892092565 8.151852039382542 5.799061522687406 M 8.6707794648165 4.992766799859359 L 8.242126500266256 5.104097999360163 L 8.525686077209565 5.258768508261285 L 8.49216615267991 5.32022104815612 L 7.878518647158633 4.98550065892428 L 7.912038571688288 4.924048119029445 L 8.199109722339873 5.080634052189405 L 8.057131959295223 4.658046410627518 L 8.099750149054355 4.579913895618372 L 8.2495490219415 5.034105812853522 L 8.71483422276976 4.912000604569005 L 8.6707794648165 4.992766799859359 M 8.17764776619631 4.394526516406363 L 8.81681120204229 4.677494893221799 L 8.788473882475651 4.74150267649679 L 8.149310446629672 4.458534299681354 L 8.17764776619631 4.394526516406363 M 8.876502089345959 4.378924998764101 L 8.962232639032493 4.143019778706458 L 9.01580474079857 4.1624884692727235 L 8.906165272872764 4.464183989744848 L 8.249202130162438 4.22543636332697 L 8.27311104840171 4.159646062912487 L 8.876502089345959 4.378924998764101 M 9.032126550160216 3.902264820995581 L 9.097041762428551 3.6598044835872603 L 9.152102476501359 3.6745461851780776 L 9.069083420174124 3.984624943377564 L 8.393865189702344 3.8038451291322777 L 8.411969033761244 3.7362267083411127 L 9.032126550160216 3.902264820995581 M 8.96436785054268 3.012320275456556 Q 9.019189995176074 2.9795097213954738 9.083386138544556 2.989700657398278 Q 9.135730686214242 2.9980101898313345 9.173550321430952 3.0308457679757033 Q 9.211369956647662 3.063681346120072 9.227570999361275 3.117891826794861 Q 9.243772042074886 3.172102307469651 9.232640404287208 3.2422242486875317 L 9.194698765630612 3.481231428613266 L 8.504343316175703 3.371639670675414 L 8.541187469416611 3.139545921573978 Q 8.557806534282722 3.0348568262346065 8.614902041562896 2.987725594037478 Q 8.67199754884307 2.9405943618403496 8.749032920885249 2.952823485043715 Q 8.813229064253731 2.9630144210465197 8.847740772658737 3.0039313122159115 Q 8.882252481063743 3.0448482033853033 8.889431508967458 3.1016765550977863 Q 8.909545705909284 3.0451308295176385 8.96436785054268 3.012320275456556 M 8.820496759576585 3.350951504353458 L 8.846052491399002 3.189967329444802 Q 8.857184129186681 3.119845388226921 8.830134594313817 3.0765692670610667 Q 8.803085059440953 3.033293145895213 8.744814713921867 3.0240429116772827 Q 8.687532001377685 3.014949461090165 8.648903943419716 3.0477994708069955 Q 8.610275885461748 3.0806494805238267 8.598673896781634 3.153734320666407 L 8.573588515851652 3.3117555966503636 L 8.820496759576585 3.350951504353458 M 9.15661021376894 3.1152334611092365 Q 9.127718730982075 3.0676148489667523 9.065497853563391 3.0577374802255726 Q 9.003276976144708 3.047860111484393 8.959263868014817 3.085930392711967 Q 8.915250759884927 3.1240006739395403 8.903491987573998 3.19807314705702 L 8.87777947212077 3.3600449549405758 L 9.147403274268395 3.4028468861523544 L 9.173586140614061 3.2379121793440997 Q 9.185501696555802 3.1628520732517207 9.15661021376894 3.1152334611092365 M 9.25853886094729 2.6290289362263555 Q 9.211670913095933 2.7072251347541765 9.129391418388078 2.751299897948323 Q 9.047111923680223 2.79537466114247 8.944127522413714 2.7935821501163467 Q 8.841143121147207 2.7917896390902235 8.760447301229421 2.744878183689688 Q 8.679751481311637 2.697966728289152 8.635633210568312 2.6181868549712615 Q 8.591514939824988 2.5384069816533703 8.593203032733085 2.4414216717227752 Q 8.594908528660852 2.343436513236194 8.64177647651221 2.265240314708373 Q 8.688644424363568 2.187044116180552 8.770915217561587 2.143469277264398 Q 8.853186010759606 2.0998944383482443 8.956170412026115 2.1016869493743675 Q 9.059154813292624 2.1034794604004907 9.139859334720244 2.1498909915230335 Q 9.220563856147864 2.1963025226455763 9.264682126891188 2.276082395963467 Q 9.308800397634512 2.3558622692813582 9.307094901706744 2.453847427767939 Q 9.305406808798649 2.5508327376985345 9.25853886094729 2.6290289362263555 M 9.212546014530103 2.3121805370218698 Q 9.177630453734233 2.2495634178426083 9.11076718491337 2.2123941659993305 Q 9.043903916092507 2.1752249141560527 8.954917394609796 2.1736760454053248 Q 8.865930873127084 2.1721271766545973 8.798314511167895 2.206955722352112 Q 8.730698149208706 2.2417842680496274 8.693624613973618 2.30314836981257 Q 8.656551078738532 2.364512471575513 8.655193643204186 2.442500658942383 Q 8.65383620766984 2.5204888463092536 8.688751768465712 2.583105965488515 Q 8.723667329261582 2.645723084667777 8.790030673804452 2.682883635001219 Q 8.856394018347322 2.7200441853346615 8.945380539830033 2.7215930540853894 Q 9.034367061312745 2.723141922836117 9.102483347549928 2.6883220786484374 Q 9.17059963378711 2.653502234460758 9.207673169022195 2.5921381326978152 Q 9.244746704257283 2.5307740309348725 9.246104139791628 2.452785843568002 Q 9.247461575325973 2.3747976562011317 9.212546014530103 2.3121805370218698 M 9.229612446536393 1.7119098515842806 Q 9.195690927516491 1.7965300651705296 9.12141057004671 1.8530537636885978 Q 9.047130212576928 1.9095774622066657 8.945156637382093 1.924082287679009 Q 8.843183062187256 1.9385871131513521 8.756087761824434 1.9050176530021379 Q 8.668992461461611 1.8714481928529236 8.61282082181423 1.7996429221597154 Q 8.55664918216685 1.7278376514665075 8.542989297984159 1.6318042845354483 Q 8.529188590253192 1.53478088289376 8.563110109273094 1.4501606693075106 Q 8.597031628292996 1.3655404557212618 8.671382397536915 1.3095117745585085 Q 8.745733166780834 1.2534830933957553 8.84770674197567 1.238978267923412 Q 8.949680317170506 1.2244734424510688 9.03670520575919 1.2575478852449682 Q 9.123730094347877 1.290622328038868 9.179901733995257 1.3624275987320758 Q 9.236073373642636 1.434232869425284 9.249874081373603 1.5312562710669724 Q 9.263533965556295 1.6272896379980315 9.229612446536393 1.7119098515842806 M 9.13412541768402 1.406311295761538 Q 9.089753108108297 1.349998791440417 9.017856117402902 1.32386313136633 Q 8.945959126697506 1.2977274712922435 8.857846037451482 1.3102607670887343 Q 8.76973294820546 1.3227940628852248 8.70847027033119 1.3678704902023227 Q 8.647207592456922 1.4129469175194207 8.620297402867322 1.4793987173163545 Q 8.593387213277722 1.5458505171132884 8.604371450043185 1.6230732245423876 Q 8.61535568680865 1.7002959319714865 8.659727996384373 1.7566084362926078 Q 8.704100305960093 1.8129209406137288 8.775502279310174 1.839127012461953 Q 8.846904252660256 1.8653330843101774 8.93501734190628 1.8527997885136867 Q 9.023130431152303 1.840266492717196 9.084888126381886 1.7951196536259604 Q 9.14664582161147 1.7499728145347249 9.17355601120107 1.683521014737791 Q 9.20046620079067 1.6170692149408572 9.189481964025205 1.5398465075117582 Q 9.178497727259742 1.462623800082659 9.13412541768402 1.406311295761538 M 9.091420869880206 0.864894604948393 Q 9.082800455991912 0.9219729586772323 9.04972028857804 0.9626509935839265 Q 9.01664012116417 1.0033290284906207 8.966238420152632 1.019841706503096 L 8.945867545138334 0.9487008079204113 Q 8.993520672876786 0.9298546036144297 9.019521883618156 0.8808017031906747 Q 9.045523094359528 0.8317488027669196 9.024326373060866 0.757723813701153 Q 9.00478134433093 0.6894670056015502 8.958267369853074 0.6596182170453403 Q 8.911753395375218 0.6297694284891304 8.857917039691024 0.6451852257972481 Q 8.814655682444796 0.6575729200626999 8.79454967453 0.6872545380396586 Q 8.774443666615202 0.7169361560166174 8.77082485066412 0.7533388231045135 Q 8.767206034713038 0.7897414901924096 8.768341144490536 0.8518278133706509 Q 8.769344984732832 0.9243536177768618 8.763327007720642 0.9687245987518271 Q 8.757309030708452 1.0130955797267926 8.728760398671595 1.0514358406651871 Q 8.70021176663474 1.0897761016035816 8.6377231395013 1.1076694377647898 Q 8.585809510805827 1.1225346708833317 8.537243663641442 1.107315982069717 Q 8.488677816477058 1.0920972932561022 8.451565705778226 1.0496745253186188 Q 8.414453595079392 1.0072517573811357 8.396284976823395 0.9438017667533357 Q 8.369582613628978 0.8505495078003571 8.398868094971231 0.7802724803834798 Q 8.428153576313486 0.7099954529666027 8.49777829953744 0.6806970244082711 L 8.518699738741315 0.753760649979677 Q 8.479288083147322 0.7723273245160773 8.458093689877755 0.8200038144658933 Q 8.436899296608187 0.8676803044157093 8.45561847905376 0.9330530220322304 Q 8.472961251025392 0.9936189221769485 8.51672877606756 1.024774238764702 Q 8.560496301109728 1.0559295553524557 8.616255383782644 1.0399631938547624 Q 8.65855537753451 1.0278507816840985 8.678180703702127 0.9983068047545336 Q 8.697806029869744 0.9687628278249687 8.701767886520612 0.9317418379424984 Q 8.705729743171482 0.8947208480600282 8.70486991548877 0.8335958883761474 Q 8.70441663943605 0.7629928109586578 8.710640016100633 0.7175228254419378 Q 8.716863392765216 0.6720528399252179 8.745412024802071 0.6337125789868234 Q 8.773960656838929 0.5953723180484288 8.835487920478007 0.5777542639820087 Q 8.882594731701676 0.5642654413374057 8.932052059918027 0.5771484800201175 Q 8.981509388134377 0.5900315187028293 9.021505589316291 0.6316284403559492 Q 9.061501790498205 0.673225362009069 9.08104681922814 0.741482170108672 Q 9.1000412837685 0.8078162512195537 9.091420869880206 0.864894604948393 M 8.129476464594951 0.19084461465335356 L 8.1831149168686 0.16877843152877411 L 8.256922494905986 0.3481898063751174 L 8.849719872619936 0.10432043770519633 L 8.876351472942703 0.1690565007940831 L 8.283554095228755 0.4129258694640042 L 8.357742124699323 0.5932620452116173 L 8.304103672425674 0.6153282283361968 L 8.129476464594951 0.19084461465335356" fill="#3e7742" fill-rule="nonzero"></path></g><g clip-path="url(#SvgjsClipPath1001)"><g clip-path="url(#ae1617ce7-16e0-41a6-abaa-22d4db221ba96ffe7b27-9cf4-49b3-a91e-7b38fecf07c7)"><path d=" M 2.138049762862296 3.2220967251117574 C 2.086552127806272 3.2736356131448296 2.0166815814154906 3.302593329356806 1.943823751389824 3.302593329356806 C 1.870965921364157 3.302593329356806 1.8010953749733762 3.2736356131448296 1.7495977399173517 3.2220967251117574" fill="none" transform="matrix(1,0,0,1,0,0)" fill-rule="nonzero" stroke-dasharray="none" stroke-miterlimit="10" stroke-linejoin="round" stroke-linecap="round" stroke-width="0.10789092989212654" stroke="#b88059"></path></g><g clip-path="url(#ae1617ce7-16e0-41a6-abaa-22d4db221ba96ffe7b27-9cf4-49b3-a91e-7b38fecf07c7)"><path d=" M 2.5265017858072403 3.2220967251117574 C 2.4750041507512157 3.2736356131448296 2.4051336043604348 3.302593329356806 2.332275774334768 3.302593329356806 C 2.259417944309101 3.302593329356806 2.18954739791832 3.2736356131448296 2.1380497628622956 3.2220967251117574" fill="none" transform="matrix(1,0,0,1,0,0)" fill-rule="nonzero" stroke-dasharray="none" stroke-miterlimit="10" stroke-linejoin="round" stroke-linecap="round" stroke-width="0.10789092989212654" stroke="#b88059"></path></g><g clip-path="url(#ae1617ce7-16e0-41a6-abaa-22d4db221ba96ffe7b27-9cf4-49b3-a91e-7b38fecf07c7)"><path d=" M 2.138049762862296 2.919979783747159 C 2.086552127806272 2.9715186717802307 2.0166815814154906 3.000476387992207 1.943823751389824 3.000476387992207 C 1.870965921364157 3.000476387992207 1.8010953749733762 2.9715186717802307 1.7495977399173517 2.919979783747159" fill="none" transform="matrix(1,0,0,1,0,0)" fill-rule="nonzero" stroke-dasharray="none" stroke-miterlimit="10" stroke-linejoin="round" stroke-linecap="round" stroke-width="0.10789092989212654" stroke="#b88059"></path></g><g clip-path="url(#ae1617ce7-16e0-41a6-abaa-22d4db221ba96ffe7b27-9cf4-49b3-a91e-7b38fecf07c7)"><path d=" M 2.5265017858072403 2.919979783747159 C 2.4750041507512157 2.9715186717802307 2.4051336043604348 3.000476387992207 2.332275774334768 3.000476387992207 C 2.259417944309101 3.000476387992207 2.18954739791832 2.9715186717802307 2.1380497628622956 2.919979783747159" fill="none" transform="matrix(1,0,0,1,0,0)" fill-rule="nonzero" stroke-dasharray="none" stroke-miterlimit="10" stroke-linejoin="round" stroke-linecap="round" stroke-width="0.10789092989212654" stroke="#b88059"></path></g><g clip-path="url(#SvgjsClipPath10006ffe7b27-9cf4-49b3-a91e-7b38fecf07c7)"><path d=" M 3.228936400594558 0.4423868319597149 L 3.228936400594558 0.7445410027687207" fill="none" transform="matrix(1,0,0,1,0,0)" fill-rule="nonzero" stroke-dasharray="none" stroke-miterlimit="10" stroke-linejoin="round" stroke-linecap="round" stroke-width="0.10789092989212654" stroke="#431a10"></path></g><g clip-path="url(#SvgjsClipPath10006ffe7b27-9cf4-49b3-a91e-7b38fecf07c7)"><path d=" M 3.7253364385983345 0.4423868319597149 L 3.7253364385983345 0.7445410027687207" fill="none" transform="matrix(1,0,0,1,0,0)" fill-rule="nonzero" stroke-dasharray="none" stroke-miterlimit="10" stroke-linejoin="round" stroke-linecap="round" stroke-width="0.10789092989212654" stroke="#431a10"></path></g><g clip-path="url(#SvgjsClipPath10006ffe7b27-9cf4-49b3-a91e-7b38fecf07c7)"><path d=" M 3.4771084974433357 0.4423868319597149 L 3.4771084974433357 0.7445410027687207" fill="none" transform="matrix(1,0,0,1,0,0)" fill-rule="nonzero" stroke-dasharray="none" stroke-miterlimit="10" stroke-linejoin="round" stroke-linecap="round" stroke-width="0.10789092989212654" stroke="#431a10"></path></g><g clip-path="url(#SvgjsClipPath10006ffe7b27-9cf4-49b3-a91e-7b38fecf07c7)"><path d=" M 3.8964154707081975 0.7898501052704919 L 3.0013823977141967 1.4208147290840738" fill="none" transform="matrix(1,0,0,1,0,0)" fill-rule="nonzero" stroke-dasharray="none" stroke-miterlimit="10" stroke-linejoin="round" stroke-linecap="round" stroke-width="0.10789092989212654" stroke="#431a10"></path></g><g clip-path="url(#SvgjsClipPath10006ffe7b27-9cf4-49b3-a91e-7b38fecf07c7)"><path d=" M 3.9584305727672806 1.69575644079724 L 2.9017844816015335 2.440605935052511" fill="none" transform="matrix(1,0,0,1,0,0)" fill-rule="nonzero" stroke-dasharray="none" stroke-miterlimit="10" stroke-linejoin="round" stroke-linecap="round" stroke-width="0.10789092989212654" stroke="#431a10"></path></g><g clip-path="url(#SvgjsClipPath10006ffe7b27-9cf4-49b3-a91e-7b38fecf07c7)"><path d=" M 4.055934731430189 2.5765607606773804 L 2.7973189043552678 3.4638128797902716" fill="none" transform="matrix(1,0,0,1,0,0)" fill-rule="nonzero" stroke-dasharray="none" stroke-miterlimit="10" stroke-linejoin="round" stroke-linecap="round" stroke-width="0.10789092989212654" stroke="#431a10"></path></g><g clip-path="url(#be1617ce7-16e0-41a6-abaa-22d4db221ba96ffe7b27-9cf4-49b3-a91e-7b38fecf07c7)"><path d=" M 4.816224305184554 3.2220967251117574 C 4.867721940240579 3.2736356131448296 4.93759248663136 3.302593329356806 5.0104503166570264 3.302593329356806 C 5.083308146682693 3.302593329356806 5.153178693073475 3.2736356131448296 5.204676328129498 3.2220967251117574" fill="none" transform="matrix(1,0,0,1,0,0)" fill-rule="nonzero" stroke-dasharray="none" stroke-miterlimit="10" stroke-linejoin="round" stroke-linecap="round" stroke-width="0.10789092989212654" stroke="#b88059"></path></g><g clip-path="url(#be1617ce7-16e0-41a6-abaa-22d4db221ba96ffe7b27-9cf4-49b3-a91e-7b38fecf07c7)"><path d=" M 4.42777228223961 3.2220967251117574 C 4.479269917295635 3.2736356131448296 4.549140463686416 3.302593329356806 4.621998293712083 3.302593329356806 C 4.6948561237377495 3.302593329356806 4.764726670128531 3.2736356131448296 4.816224305184555 3.2220967251117574" fill="none" transform="matrix(1,0,0,1,0,0)" fill-rule="nonzero" stroke-dasharray="none" stroke-miterlimit="10" stroke-linejoin="round" stroke-linecap="round" stroke-width="0.10789092989212654" stroke="#b88059"></path></g><g clip-path="url(#be1617ce7-16e0-41a6-abaa-22d4db221ba96ffe7b27-9cf4-49b3-a91e-7b38fecf07c7)"><path d=" M 4.816224305184554 2.919979783747159 C 4.867721940240579 2.9715186717802307 4.93759248663136 3.000476387992207 5.0104503166570264 3.000476387992207 C 5.083308146682693 3.000476387992207 5.153178693073475 2.9715186717802307 5.204676328129498 2.919979783747159" fill="none" transform="matrix(1,0,0,1,0,0)" fill-rule="nonzero" stroke-dasharray="none" stroke-miterlimit="10" stroke-linejoin="round" stroke-linecap="round" stroke-width="0.10789092989212654" stroke="#b88059"></path></g><g clip-path="url(#be1617ce7-16e0-41a6-abaa-22d4db221ba96ffe7b27-9cf4-49b3-a91e-7b38fecf07c7)"><path d=" M 4.42777228223961 2.919979783747159 C 4.479269917295635 2.9715186717802307 4.549140463686416 3.000476387992207 4.621998293712083 3.000476387992207 C 4.6948561237377495 3.000476387992207 4.764726670128531 2.9715186717802307 4.816224305184555 2.919979783747159" fill="none" transform="matrix(1,0,0,1,0,0)" fill-rule="nonzero" stroke-dasharray="none" stroke-miterlimit="10" stroke-linejoin="round" stroke-linecap="round" stroke-width="0.10789092989212654" stroke="#b88059"></path></g><g clip-path="url(#SvgjsClipPath10006ffe7b27-9cf4-49b3-a91e-7b38fecf07c7)"><path d=" M 2.797315757807834 3.463787175773004 L 3.0562837731044636 0.7876974823375497 L 3.897967052262916 0.7876974823375497 L 4.156935067559546 3.463787175773004" fill="none" transform="matrix(1,0,0,1,0,0)" fill-rule="nonzero" stroke-dasharray="none" stroke-miterlimit="10" stroke-linejoin="round" stroke-linecap="round" stroke-width="0.10789092989212654" stroke="#431a10"></path></g><g clip-path="url(#ce1617ce7-16e0-41a6-abaa-22d4db221ba96ffe7b27-9cf4-49b3-a91e-7b38fecf07c7)"><path d=" M 3.897960058880448 0.39924856182303825 L 3.0562767797219954 0.39924856182303825 L 3.4771184193012212 0.05394546494606327 Z" fill="none" transform="matrix(1,0,0,1,0,0)" fill-rule="nonzero" stroke-dasharray="none" stroke-miterlimit="10" stroke-linejoin="round" stroke-linecap="round" stroke-width="0.10789092989212654" stroke="#431a10"></path></g><g clip-path="url(#ce1617ce7-16e0-41a6-abaa-22d4db221ba96ffe7b27-9cf4-49b3-a91e-7b38fecf07c7)"><path d=" M 1.3826643358397817 3.4114084499224764 C 1.3826643358397817 2.4927346797298906 1.9231986391882234 1.700641020521856 2.7034161056303545 1.3348244997765022" fill="none" transform="matrix(1,0,0,1,0,0)" fill-rule="nonzero" stroke-dasharray="none" stroke-miterlimit="10" stroke-linejoin="round" stroke-linecap="round" stroke-width="0.10789092989212654" stroke="#3e7742"></path></g><g clip-path="url(#ce1617ce7-16e0-41a6-abaa-22d4db221ba96ffe7b27-9cf4-49b3-a91e-7b38fecf07c7)"><path d=" M 4.25082073297209 1.3348244997765024 C 5.031075428858627 1.7006410205218563 5.571572502762663 2.492771909174298 5.571572502762663 3.411408449922477" fill="none" transform="matrix(1,0,0,1,0,0)" fill-rule="nonzero" stroke-dasharray="none" stroke-miterlimit="10" stroke-linejoin="round" stroke-linecap="round" stroke-width="0.10789092989212654" stroke="#3e7742"></path></g><g clip-path="url(#SvgjsClipPath10006ffe7b27-9cf4-49b3-a91e-7b38fecf07c7)"><path d=" M 5.275043858400764 0.5934736024422458 L 3.98016655247321 0.5934736024422458" fill="none" transform="matrix(1,0,0,1,0,0)" fill-rule="nonzero" stroke-dasharray="none" stroke-miterlimit="10" stroke-linejoin="round" stroke-linecap="round" stroke-width="0.10789092989212654" stroke="#431a10"></path></g><g clip-path="url(#SvgjsClipPath10006ffe7b27-9cf4-49b3-a91e-7b38fecf07c7)"><path d=" M 5.534021828503421 0.5934736024422458 L 5.7066547622197055 0.5934736024422458" fill="none" transform="matrix(1,0,0,1,0,0)" fill-rule="nonzero" stroke-dasharray="none" stroke-miterlimit="10" stroke-linejoin="round" stroke-linecap="round" stroke-width="0.10789092989212654" stroke="#431a10"></path></g><g clip-path="url(#SvgjsClipPath10006ffe7b27-9cf4-49b3-a91e-7b38fecf07c7)"><path d=" M 5.965642471290144 0.5934736024422458 Z" fill="none" transform="matrix(1,0,0,1,0,0)" fill-rule="nonzero" stroke-dasharray="none" stroke-miterlimit="10" stroke-linejoin="round" stroke-linecap="round" stroke-width="0.10789092989212654" stroke="#431a10"></path></g><g clip-path="url(#SvgjsClipPath10006ffe7b27-9cf4-49b3-a91e-7b38fecf07c7)"><path d=" M 2.9740909091523 0.5934736024422458 L 1.6792136032247458 0.5934736024422458" fill="none" transform="matrix(1,0,0,1,0,0)" fill-rule="nonzero" stroke-dasharray="none" stroke-miterlimit="10" stroke-linejoin="round" stroke-linecap="round" stroke-width="0.10789092989212654" stroke="#431a10"></path></g><g clip-path="url(#SvgjsClipPath10006ffe7b27-9cf4-49b3-a91e-7b38fecf07c7)"><path d=" M 1.2475804158522934 0.5934736024422458 L 1.4202133495685771 0.5934736024422458" fill="none" transform="matrix(1,0,0,1,0,0)" fill-rule="nonzero" stroke-dasharray="none" stroke-miterlimit="10" stroke-linejoin="round" stroke-linecap="round" stroke-width="0.10789092989212654" stroke="#431a10"></path></g><g clip-path="url(#SvgjsClipPath10006ffe7b27-9cf4-49b3-a91e-7b38fecf07c7)"><path d=" M 0.9886024457496367 0.5934736024422458 Z" fill="none" transform="matrix(1,0,0,1,0,0)" fill-rule="nonzero" stroke-dasharray="none" stroke-miterlimit="10" stroke-linejoin="round" stroke-linecap="round" stroke-width="0.10789092989212654" stroke="#431a10"></path></g><g clip-path="url(#de1617ce7-16e0-41a6-abaa-22d4db221ba96ffe7b27-9cf4-49b3-a91e-7b38fecf07c7)"><path d=" M 1.865530229801438 0.16165024761615354 L 2.797867206091474 0.4114970490330138" fill="none" transform="matrix(1,0,0,1,0,0)" fill-rule="nonzero" stroke-dasharray="none" stroke-miterlimit="10" stroke-linejoin="round" stroke-linecap="round" stroke-width="0.10789092989212654" stroke="#431a10"></path></g><g clip-path="url(#SvgjsClipPath10006ffe7b27-9cf4-49b3-a91e-7b38fecf07c7)"><path d=" M 2.7978742008700497 0.7754701964184307 L 1.8655372245800137 1.025316997835291" fill="none" transform="matrix(1,0,0,1,0,0)" fill-rule="nonzero" stroke-dasharray="none" stroke-miterlimit="10" stroke-linejoin="round" stroke-linecap="round" stroke-width="0.10789092989212654" stroke="#431a10"></path></g><g clip-path="url(#ee1617ce7-16e0-41a6-abaa-22d4db221ba96ffe7b27-9cf4-49b3-a91e-7b38fecf07c7)"><path d=" M 5.0887438382454135 0.16165024761615354 L 4.156406861955377 0.4114970490330138" fill="none" transform="matrix(1,0,0,1,0,0)" fill-rule="nonzero" stroke-dasharray="none" stroke-miterlimit="10" stroke-linejoin="round" stroke-linecap="round" stroke-width="0.10789092989212654" stroke="#431a10"></path></g><g clip-path="url(#SvgjsClipPath10006ffe7b27-9cf4-49b3-a91e-7b38fecf07c7)"><path d=" M 4.156398638322843 0.7754701964184307 L 5.088735614612879 1.025316997835291" fill="none" transform="matrix(1,0,0,1,0,0)" fill-rule="nonzero" stroke-dasharray="none" stroke-miterlimit="10" stroke-linejoin="round" stroke-linecap="round" stroke-width="0.10789092989212654" stroke="#431a10"></path></g><g clip-path="url(#fe1617ce7-16e0-41a6-abaa-22d4db221ba96ffe7b27-9cf4-49b3-a91e-7b38fecf07c7)"><path d=" M 6.382392572507529 3.713525391287075 L 4.269472684620107 3.713525391287075 C 3.9358968627314064 3.713525391287075 3.6432362002462417 3.8879453383349056 3.4771184193012212 4.150375691961406 C 3.3110006383562016 3.8879453383349056 3.0183772053154447 3.713525391287075 2.684764153982337 3.713525391287075 L 0.5718814955393231 3.713525391287075" fill="none" transform="matrix(1,0,0,1,0,0)" fill-rule="nonzero" stroke-dasharray="none" stroke-miterlimit="10" stroke-linejoin="round" stroke-linecap="round" stroke-width="0.10789092989212654" stroke="#3e7742"></path></g><g clip-path="url(#fe1617ce7-16e0-41a6-abaa-22d4db221ba96ffe7b27-9cf4-49b3-a91e-7b38fecf07c7)"><path d=" M 3.618069095826961 4.650776654238864 C 3.618069095826961 4.2909913034874805 3.90972456331313 3.999335836001311 4.269509914064514 3.999335836001311 L 6.641360587804159 3.999335836001311" fill="none" transform="matrix(1,0,0,1,0,0)" fill-rule="nonzero" stroke-dasharray="none" stroke-miterlimit="10" stroke-linejoin="round" stroke-linecap="round" stroke-width="0.10789092989212654" stroke="#3e7742"></path></g><g clip-path="url(#fe1617ce7-16e0-41a6-abaa-22d4db221ba96ffe7b27-9cf4-49b3-a91e-7b38fecf07c7)"><path d=" M 3.336167742775483 4.650776654238864 C 3.336167742775483 4.2909913034874805 3.0445122752893137 3.999335836001311 2.6847641539823366 3.999335836001311 L 0.31287625079828524 3.999335836001311" fill="none" transform="matrix(1,0,0,1,0,0)" fill-rule="nonzero" stroke-dasharray="none" stroke-miterlimit="10" stroke-linejoin="round" stroke-linecap="round" stroke-width="0.10789092989212654" stroke="#3e7742"></path></g><g clip-path="url(#fe1617ce7-16e0-41a6-abaa-22d4db221ba96ffe7b27-9cf4-49b3-a91e-7b38fecf07c7)"><path d=" M 0.05394546494606327 4.285220739604361 L 2.684801383426744 4.285220739604361 C 2.8866594310026965 4.285220739604361 3.05032006861684 4.4488813772185045 3.05032006861684 4.650739424794457 L 3.9039912288744176 4.650739424794457 C 3.9039912288744176 4.4488813772185045 4.0676518664885615 4.285220739604361 4.269509914064513 4.285220739604361 L 6.900365832545193 4.285220739604361" fill="none" transform="matrix(1,0,0,1,0,0)" fill-rule="nonzero" stroke-dasharray="none" stroke-miterlimit="10" stroke-linejoin="round" stroke-linecap="round" stroke-width="0.10789092989212654" stroke="#3e7742"></path></g></g><g transform="matrix(0.795437231884817,-0.6060359808884452,0.6060359808884452,0.795437231884817,0.47882193028902664,-0.7024788418990544)"><g clip-path="url(#SvgjsClipPath1002)"><path d=" M -0.8011680657472626 -0.8633145296824306 C -0.7889761645403661 -0.8633145296824306 -0.782782229540366 -0.8716354967513961 -0.7713653959196765 -0.8867316995100167 L -0.6567985164369178 -1.0398097496824306 C -0.6506045814369177 -1.047939151751396 -0.6477024817817454 -1.0556788181307064 -0.6477024817817454 -1.0640019870962236 C -0.6477024817817454 -1.0723229541651893 -0.6506045814369177 -1.0800648224410514 -0.6567985164369178 -1.0881920226134651 L -0.7713653959196765 -1.2412711737341549 C -0.782782229540366 -1.2563660553548444 -0.7889761645403661 -1.2646876829927753 -0.8011680657472626 -1.2646876829927753 C -0.8135537338507108 -1.2646876829927753 -0.8197476688507108 -1.2563660553548444 -0.8311645024714005 -1.2412711737341549 L -0.9457320425231247 -1.0881920226134651 C -0.9519248765748488 -1.0800648224410514 -0.9548278569886419 -1.0723229541651893 -0.9548278569886419 -1.0640019870962236 C -0.9548278569886419 -1.0556788181307064 -0.9519248765748488 -1.047939151751396 -0.9457320425231247 -1.0398097496824306 L -0.8311645024714005 -0.8867316995100167 C -0.8197476688507108 -0.8716354967513961 -0.8135537338507108 -0.8633145296824306 -0.8011680657472626 -0.8633145296824306 Z" fill="#431a10" transform="matrix(1,0,0,1,0,0)" fill-rule="nonzero"></path></g></g><g transform="matrix(-0.795437231884817,-0.6060359808884452,-0.6060359808884452,0.795437231884817,13.281765312329014,4.4831573758429375)"><g clip-path="url(#SvgjsClipPath1003)"><path d=" M 7.755479363238519 -0.8633145296824306 C 7.767671264445416 -0.8633145296824306 7.7738651994454155 -0.8716354967513961 7.785282033066105 -0.8867316995100167 L 7.899848912548864 -1.0398097496824306 C 7.906042847548863 -1.047939151751396 7.908944947204036 -1.0556788181307064 7.908944947204036 -1.0640019870962236 C 7.908944947204036 -1.0723229541651893 7.906042847548863 -1.0800648224410514 7.899848912548864 -1.0881920226134651 L 7.785282033066105 -1.2412711737341549 C 7.7738651994454155 -1.2563660553548444 7.767671264445416 -1.2646876829927753 7.755479363238519 -1.2646876829927753 C 7.74309369513507 -1.2646876829927753 7.736899760135071 -1.2563660553548444 7.725482926514381 -1.2412711737341549 L 7.610915386462657 -1.0881920226134651 C 7.604722552410933 -1.0800648224410514 7.601819571997139 -1.0723229541651893 7.601819571997139 -1.0640019870962236 C 7.601819571997139 -1.0556788181307064 7.604722552410933 -1.047939151751396 7.610915386462657 -1.0398097496824306 L 7.725482926514381 -0.8867316995100167 C 7.736899760135071 -0.8716354967513961 7.74309369513507 -0.8633145296824306 7.755479363238519 -0.8633145296824306 Z" fill="#431a10" transform="matrix(1,0,0,1,0,0)" fill-rule="nonzero"></path></g></g></g><defs><clipPath id="SvgjsClipPath1001"><path d=" M 0 0 h 6.954311297491256 v 4.704722119184927 h -6.954311297491256 Z"></path></clipPath><clipPath id="ae1617ce7-16e0-41a6-abaa-22d4db221ba96ffe7b27-9cf4-49b3-a91e-7b38fecf07c7"><path d=" M -0.00003722944440721542 4.704759348629334 L 6.954311297491257 4.704759348629334 L 6.954311297491257 0 L -0.00003722944440721542 0 Z"></path></clipPath><clipPath id="SvgjsClipPath10006ffe7b27-9cf4-49b3-a91e-7b38fecf07c7"><path d=" M 0 0 L 6.954311297491255 0 L 6.954311297491255 4.704722119184927 L 0 4.704722119184927 Z"></path></clipPath><clipPath id="be1617ce7-16e0-41a6-abaa-22d4db221ba96ffe7b27-9cf4-49b3-a91e-7b38fecf07c7"><path d=" M -0.00003722944440721542 4.704759348629334 L 6.954311297491257 4.704759348629334 L 6.954311297491257 0 L -0.00003722944440721542 0 Z"></path></clipPath><clipPath id="ce1617ce7-16e0-41a6-abaa-22d4db221ba96ffe7b27-9cf4-49b3-a91e-7b38fecf07c7"><path d=" M -0.00003722944440721542 4.704759348629334 L 6.954311297491257 4.704759348629334 L 6.954311297491257 0 L -0.00003722944440721542 0 Z"></path></clipPath><clipPath id="de1617ce7-16e0-41a6-abaa-22d4db221ba96ffe7b27-9cf4-49b3-a91e-7b38fecf07c7"><path d=" M -0.00003722944440721542 4.704759348629334 L 6.954311297491257 4.704759348629334 L 6.954311297491257 0 L -0.00003722944440721542 0 Z"></path></clipPath><clipPath id="ee1617ce7-16e0-41a6-abaa-22d4db221ba96ffe7b27-9cf4-49b3-a91e-7b38fecf07c7"><path d=" M -0.00003722944440721542 4.704759348629334 L 6.954311297491257 4.704759348629334 L 6.954311297491257 0 L -0.00003722944440721542 0 Z"></path></clipPath><clipPath id="fe1617ce7-16e0-41a6-abaa-22d4db221ba96ffe7b27-9cf4-49b3-a91e-7b38fecf07c7"><path d=" M -0.00003722944440721542 4.704759348629334 L 6.954311297491257 4.704759348629334 L 6.954311297491257 0 L -0.00003722944440721542 0 Z"></path></clipPath><clipPath id="SvgjsClipPath1002"><path d=" M -1.109433582988642 -1.3797913848548444 h 0.6165310344827586 v 0.6385500000000001 h -0.6165310344827586 Z"></path></clipPath><clipPath id="SvgjsClipPath1003"><path d=" M 7.4472138459971395 -1.3797913848548444 h 0.6165310344827586 v 0.6385500000000001 h -0.6165310344827586 Z"></path></clipPath></defs></svg>